<svg width="24" height="24" viewBox="0 0 24 24" fill="none" xmlns="http://www.w3.org/2000/svg">
<path d="M21 7.5V4.5H17.997L21 7.5Z" fill="white"/>
<path d="M3 10.5V22.5H16.5V21H4.5V9.4995L3 10.5ZM19.503 9L19.5 22.5H21V10.5L19.503 9Z" fill="white"/>
<path d="M12 13.479C12.3012 13.4069 12.6049 13.3459 12.9105 13.296C13.3431 13.2276 13.7806 13.1955 14.2185 13.2C14.661 13.2 15.0285 13.2645 15.321 13.3935C15.6135 13.5135 15.846 13.689 16.0185 13.9185C16.197 14.139 16.3215 14.4075 16.3935 14.721C16.464 15.036 16.5 15.381 16.5 15.7605V21.3H12V13.479Z" fill="white"/>
<path fill-rule="evenodd" clip-rule="evenodd" d="M12 0.439499L0.218994 12.219L1.28099 13.281L12 2.5605L22.719 13.281L23.781 12.219L12 0.439499Z" fill="white"/>
</svg>
