<svg width="24" height="24" viewBox="0 0 24 24" fill="none" xmlns="http://www.w3.org/2000/svg">
<path d="M10.5 1.5V7.5H8.25C8.77149 8.64063 9.35438 9.80114 9.99898 10.9834C10.6452 12.1546 11.3126 13.1625 12 14.25C12.6737 13.1625 13.3343 12.1545 13.9805 10.9834C14.6255 9.80051 15.2146 8.63836 15.75 7.49716L13.5 7.50009V1.50307L10.5 1.5ZM3 12V20.247C3 21.0595 3.0954 21.7229 3.3457 22.2861C3.59601 22.8493 4.03186 23.2883 4.54102 23.5429C5.55935 24.0521 6.75005 23.997 8.25005 23.997H15.75C17.25 23.997 18.4408 24.0521 19.4591 23.5429C19.9683 23.2883 20.4041 22.8493 20.6544 22.2861C20.9047 21.7229 21.0032 21.0595 21.0001 20.247V12H19.5001V16.5H4.50014V12H3ZM4.5 18H19.5V20.247C19.5 20.9345 19.4079 21.3961 19.2832 21.6767C19.1586 21.9572 19.0319 22.0807 18.791 22.2011C18.3094 22.4419 17.25 22.497 15.75 22.497H8.25005C6.75005 22.497 5.69077 22.4419 5.20912 22.2011C4.96828 22.0806 4.84163 21.9572 4.71693 21.6767C4.59224 21.3961 4.50014 20.9345 4.50014 20.247L4.5 18ZM10.5 19.5V21H13.5V19.5H10.5Z" fill="white"/>
</svg>
