<svg width="24" height="24" viewBox="0 0 24 24" fill="none" xmlns="http://www.w3.org/2000/svg">
<g clip-path="url(#clip0_18_18)">
<path d="M11.25 1.5C8.28301 1.5 5.59501 2.6535 3.58501 4.527L2.04751 2.988C1.69458 3.9695 1.37143 4.96145 1.07851 5.9625C0.787539 6.96815 0.521955 7.98097 0.282006 9C1.28551 8.775 2.29951 8.5125 3.32701 8.2155C4.36201 7.911 5.35051 7.584 6.28951 7.233L4.65001 5.5905C6.44424 3.925 8.80192 2.99961 11.25 3C16.641 3 21 7.359 21 12.75C21 18.141 16.641 22.5 11.25 22.5C8.79444 22.5013 6.42909 21.5746 4.62793 19.9056C2.82678 18.2366 1.7229 15.9486 1.53751 13.5H0.0375061C0.223436 16.3469 1.48574 19.0163 3.56816 20.9664C5.65058 22.9165 8.39705 24.0011 11.25 24C17.4705 24 22.5 18.9705 22.5 12.75C22.5 6.5295 17.4705 1.5 11.25 1.5ZM10.5 6V13.8105L14.094 17.406L15.156 16.344L12 13.1895V6H10.5ZM19.65 22.455L19.6905 22.509L19.6695 22.476L19.65 22.455ZM1.33501 22.4625C1.33051 22.47 1.32001 22.476 1.31551 22.482L1.29451 22.515L1.33501 22.4625Z" fill="white"/>
</g>
<defs>
<clipPath id="clip0_18_18">
<rect width="24" height="24" fill="white"/>
</clipPath>
</defs>
</svg>
